<svg version="1.0" preserveAspectRatio="xMidYMid meet" height="88" viewBox="0 0 112.5 66" zoomAndPan="magnify" width="150" xmlns:xlink="http://www.w3.org/1999/xlink" xmlns="http://www.w3.org/2000/svg"><defs><clipPath id="f07fe56be6"><path clip-rule="nonzero" d="M 7 10.089844 L 105 10.089844 L 105 55.636719 L 7 55.636719 Z M 7 10.089844"></path></clipPath></defs><g clip-path="url(#f07fe56be6)"><path fill-rule="evenodd" fill-opacity="1" d="M 70.242188 13.152344 L 70.242188 10.65625 L 60.25 10.65625 L 60.25 24.367188 L 70.242188 24.367188 L 70.242188 22.105469 L 63.03125 22.105469 L 63.03125 18.382812 L 69.34375 18.382812 L 69.34375 15.933594 L 63.03125 15.933594 L 63.03125 13.152344 Z M 67.460938 25.78125 L 67.460938 31.058594 L 61.992188 31.058594 L 61.992188 25.78125 L 59.167969 25.78125 L 59.167969 39.445312 L 61.992188 39.445312 L 61.992188 33.320312 L 67.460938 33.320312 L 67.460938 39.445312 L 70.242188 39.445312 L 70.242188 25.78125 Z M 70.242188 43.308594 L 70.242188 40.859375 L 60.25 40.859375 L 60.25 54.761719 L 70.242188 54.761719 L 70.242188 52.265625 L 63.03125 52.265625 L 63.03125 48.585938 L 69.34375 48.585938 L 69.34375 46.328125 L 63.03125 46.328125 L 63.03125 43.308594 Z M 58.648438 10.65625 L 55.867188 10.65625 L 55.867188 15.933594 L 50.402344 15.933594 L 50.402344 10.65625 L 47.621094 10.65625 L 47.621094 24.367188 L 50.402344 24.367188 L 50.402344 18.242188 L 55.867188 18.242188 L 55.867188 24.367188 L 58.648438 24.367188 Z M 35.652344 10.65625 L 35.652344 13.152344 L 39.894531 13.152344 L 39.894531 24.367188 L 42.675781 24.367188 L 42.675781 13.152344 L 46.914062 13.152344 L 46.914062 10.65625 Z M 26.890625 25.402344 C 22.507812 25.402344 20.199219 27.902344 20.199219 32.613281 C 20.199219 37.5625 22.507812 40.011719 26.890625 40.011719 C 31.273438 40.011719 33.535156 37.5625 33.535156 32.613281 C 33.535156 27.902344 31.273438 25.402344 26.890625 25.402344 Z M 23.214844 32.613281 C 23.214844 29.457031 24.4375 27.902344 26.890625 27.902344 C 29.527344 27.902344 30.753906 29.457031 30.753906 32.613281 C 30.753906 35.960938 29.527344 37.5625 26.890625 37.5625 C 24.4375 37.5625 23.214844 35.960938 23.214844 32.613281 Z M 16.191406 25.78125 L 16.191406 35.441406 L 10.726562 25.78125 L 7.757812 25.78125 L 7.757812 39.445312 L 10.398438 39.445312 L 10.398438 29.832031 L 16.003906 39.445312 L 18.972656 39.445312 L 18.972656 25.78125 Z M 29.152344 46.515625 L 29.152344 43.308594 L 36.171875 43.308594 L 36.171875 40.859375 L 26.371094 40.859375 L 26.371094 54.761719 L 29.152344 54.761719 L 29.152344 48.964844 L 35.324219 48.964844 L 35.324219 46.515625 Z M 58.132812 28.230469 L 58.132812 25.78125 L 46.914062 25.78125 L 46.914062 28.230469 L 51.109375 28.230469 L 51.109375 39.445312 L 53.9375 39.445312 L 53.9375 28.230469 Z M 40.742188 34.214844 C 41.636719 34.214844 42.34375 34.355469 42.675781 34.734375 L 43.191406 39.445312 L 46.351562 39.445312 L 46.351562 39.117188 C 46.019531 38.929688 45.832031 38.082031 45.832031 36.476562 C 45.832031 34.546875 45.125 33.507812 44.089844 32.992188 C 45.503906 32.425781 46.210938 31.386719 46.210938 29.644531 C 46.210938 27.195312 44.796875 25.78125 41.828125 25.78125 L 34.945312 25.78125 L 34.945312 39.445312 L 37.773438 39.445312 L 37.773438 34.214844 Z M 37.773438 31.90625 L 37.773438 28.230469 L 41.261719 28.230469 C 42.675781 28.230469 43.382812 28.75 43.382812 29.976562 C 43.382812 31.199219 42.675781 31.90625 41.121094 31.90625 Z M 42.675781 40.859375 L 39.328125 40.859375 L 34.429688 54.761719 L 37.398438 54.761719 L 38.480469 51.746094 L 43.570312 51.746094 L 44.417969 54.761719 L 47.433594 54.761719 Z M 40.929688 44.015625 L 42.675781 49.484375 L 39.1875 49.484375 Z M 56.386719 45.429688 L 59.167969 45.429688 C 59.027344 44.207031 58.648438 43.167969 57.800781 42.273438 C 56.574219 41.234375 55.160156 40.53125 53.230469 40.53125 C 51.296875 40.53125 49.882812 41.234375 48.660156 42.460938 C 47.621094 43.6875 46.914062 45.429688 46.914062 47.738281 C 46.914062 52.640625 48.988281 55.089844 53.042969 55.089844 C 56.574219 55.089844 58.507812 53.34375 59.167969 50 L 56.386719 50 C 56.011719 51.601562 54.785156 52.449219 53.230469 52.449219 C 50.921875 52.449219 49.882812 50.898438 49.882812 47.878906 C 49.882812 44.582031 50.921875 42.980469 53.230469 42.980469 C 54.785156 42.980469 55.679688 43.875 56.386719 45.429688 Z M 21.421875 54.570312 L 21.46875 54.570312 Z M 21.46875 54.570312 C 21.941406 54.570312 22.320312 54.382812 22.601562 54.148438 C 22.835938 53.863281 23.027344 53.488281 23.027344 52.96875 C 23.027344 52.40625 22.835938 52.027344 22.601562 51.792969 C 22.320312 51.558594 21.941406 51.414062 21.46875 51.414062 L 21.421875 51.414062 C 20.859375 51.414062 20.480469 51.558594 20.246094 51.792969 C 20.011719 52.027344 19.867188 52.40625 19.867188 52.96875 L 19.867188 53.015625 C 19.867188 53.488281 20.011719 53.863281 20.246094 54.148438 C 20.480469 54.382812 20.859375 54.570312 21.421875 54.570312 Z M 21.421875 54.949219 C 20.765625 54.949219 20.292969 54.714844 19.960938 54.382812 C 19.632812 54.054688 19.492188 53.582031 19.492188 53.015625 L 19.492188 52.96875 C 19.492188 52.308594 19.632812 51.839844 19.960938 51.511719 C 20.292969 51.179688 20.765625 51.039062 21.421875 51.039062 L 21.46875 51.039062 C 22.035156 51.039062 22.507812 51.179688 22.835938 51.511719 C 23.167969 51.839844 23.402344 52.308594 23.402344 52.96875 C 23.402344 53.582031 23.167969 54.054688 22.835938 54.382812 C 22.460938 54.761719 22.003906 54.953125 21.46875 54.949219 Z M 21.613281 52.78125 L 21.660156 52.78125 C 21.847656 52.78125 21.941406 52.6875 21.941406 52.453125 L 21.941406 52.40625 C 21.941406 52.40625 21.894531 52.40625 21.894531 52.355469 C 21.847656 52.308594 21.753906 52.308594 21.613281 52.308594 L 21.09375 52.308594 L 21.09375 52.78125 Z M 21.941406 53.109375 L 22.320312 53.582031 C 22.367188 53.675781 22.320312 53.769531 22.273438 53.816406 C 22.175781 53.914062 22.035156 53.863281 21.988281 53.816406 L 21.519531 53.160156 L 21.09375 53.160156 L 21.09375 53.675781 C 21.09375 53.769531 21 53.863281 20.90625 53.863281 C 20.8125 53.863281 20.714844 53.769531 20.714844 53.675781 L 20.714844 52.121094 C 20.714844 52.027344 20.8125 51.933594 20.90625 51.933594 L 21.660156 51.933594 C 21.847656 51.933594 22.035156 51.980469 22.128906 52.074219 C 22.175781 52.121094 22.222656 52.121094 22.222656 52.167969 C 22.320312 52.265625 22.320312 52.355469 22.320312 52.453125 C 22.320312 52.828125 22.222656 53.015625 21.941406 53.109375 Z M 72.171875 10.65625 C 80.9375 10.65625 88.523438 13.859375 94.648438 19.984375 C 100.964844 26.300781 104.121094 33.839844 104.121094 42.648438 L 104.121094 54.761719 L 91.304688 54.761719 L 91.304688 42.273438 C 91.304688 37.375 89.5625 33.132812 86.027344 29.644531 C 85.179688 28.75 84.285156 28.042969 83.246094 27.335938 C 80.417969 25.402344 77.074219 24.554688 73.585938 24.554688 L 72.171875 24.554688 Z M 90.078125 54.761719 L 80.089844 54.761719 L 80.089844 45.101562 C 80.089844 43.5 79.570312 42.273438 78.488281 41.234375 C 77.449219 40.152344 76.035156 39.632812 74.621094 39.632812 L 72.171875 39.632812 L 72.171875 25.78125 L 73.585938 25.78125 C 77.261719 25.78125 80.417969 26.816406 83.246094 28.9375 C 83.953125 29.269531 84.660156 29.976562 85.175781 30.492188 C 88.523438 33.839844 90.078125 37.703125 90.078125 42.273438 Z M 78.863281 54.761719 L 72.171875 54.761719 L 72.171875 40.859375 L 74.621094 40.859375 C 75.707031 40.859375 76.742188 41.234375 77.636719 42.085938 C 78.34375 42.792969 78.863281 43.875 78.863281 45.101562 Z M 78.863281 54.761719" fill="#ffffff"></path></g></svg>