<svg version="1.0" preserveAspectRatio="xMidYMid meet" height="88" viewBox="0 0 112.5 66" zoomAndPan="magnify" width="150" xmlns:xlink="http://www.w3.org/1999/xlink" xmlns="http://www.w3.org/2000/svg"><defs><clipPath id="a17e9b28ff"><path clip-rule="nonzero" d="M 44 35 L 52 35 L 52 44.96875 L 44 44.96875 Z M 44 35"></path></clipPath><clipPath id="61c4e89cab"><path clip-rule="nonzero" d="M 85 35 L 94 35 L 94 44.96875 L 85 44.96875 Z M 85 35"></path></clipPath><clipPath id="e46c4b5e08"><path clip-rule="nonzero" d="M 53 35 L 60 35 L 60 44.96875 L 53 44.96875 Z M 53 35"></path></clipPath><clipPath id="a40ca14ab6"><path clip-rule="nonzero" d="M 68 35 L 76 35 L 76 44.96875 L 68 44.96875 Z M 68 35"></path></clipPath><clipPath id="8a4fedf6a8"><path clip-rule="nonzero" d="M 60 35 L 68 35 L 68 44.96875 L 60 44.96875 Z M 60 35"></path></clipPath><clipPath id="934ff92e68"><path clip-rule="nonzero" d="M 76 35 L 85 35 L 85 44.96875 L 76 44.96875 Z M 76 35"></path></clipPath><clipPath id="ababa30fb5"><path clip-rule="nonzero" d="M 93 35 L 103 35 L 103 44.96875 L 93 44.96875 Z M 93 35"></path></clipPath><clipPath id="94cd6217d3"><path clip-rule="nonzero" d="M 104 35 L 112 35 L 112 44.96875 L 104 44.96875 Z M 104 35"></path></clipPath><clipPath id="f89184cd7d"><path clip-rule="nonzero" d="M 104 24 L 112.003906 24 L 112.003906 34 L 104 34 Z M 104 24"></path></clipPath><clipPath id="5102ed2028"><path clip-rule="nonzero" d="M 0 21.074219 L 40 21.074219 L 40 44.96875 L 0 44.96875 Z M 0 21.074219"></path></clipPath></defs><g clip-path="url(#a17e9b28ff)"><path fill-rule="nonzero" fill-opacity="1" d="M 51.242188 39.0625 C 51.257812 38.613281 51.179688 38.179688 51.003906 37.769531 C 50.828125 37.355469 50.570312 36.996094 50.234375 36.699219 C 49.492188 36.070312 48.636719 35.773438 47.667969 35.808594 L 44.035156 35.808594 L 44.035156 44.742188 L 46.371094 44.742188 L 46.371094 37.875 L 47.6875 37.875 C 47.847656 37.863281 48.003906 37.886719 48.152344 37.941406 C 48.304688 38 48.4375 38.085938 48.550781 38.199219 C 48.664062 38.3125 48.75 38.445312 48.808594 38.597656 C 48.863281 38.746094 48.886719 38.902344 48.878906 39.0625 C 48.890625 39.398438 48.78125 39.691406 48.550781 39.933594 C 48.3125 40.171875 48.023438 40.28125 47.6875 40.265625 L 46.371094 40.265625 L 49.386719 44.746094 L 51.980469 44.746094 L 49.78125 41.753906 C 50.253906 41.476562 50.621094 41.09375 50.882812 40.613281 C 51.148438 40.128906 51.265625 39.613281 51.242188 39.0625 Z M 51.242188 39.0625" fill="#ffffff"></path></g><g clip-path="url(#61c4e89cab)"><path fill-rule="nonzero" fill-opacity="1" d="M 92.472656 39.023438 C 92.488281 38.570312 92.410156 38.140625 92.234375 37.726562 C 92.058594 37.3125 91.800781 36.957031 91.464844 36.65625 C 90.722656 36.027344 89.867188 35.730469 88.894531 35.765625 L 85.265625 35.765625 L 85.265625 44.710938 L 87.601562 44.722656 L 87.601562 37.832031 L 88.917969 37.832031 C 89.078125 37.820312 89.234375 37.84375 89.386719 37.902344 C 89.535156 37.957031 89.667969 38.042969 89.78125 38.15625 C 89.894531 38.269531 89.980469 38.402344 90.039062 38.554688 C 90.09375 38.707031 90.117188 38.859375 90.105469 39.023438 C 90.121094 39.355469 90.011719 39.648438 89.78125 39.890625 C 89.542969 40.128906 89.253906 40.238281 88.917969 40.222656 L 87.601562 40.222656 L 90.609375 44.710938 L 93.203125 44.710938 L 91.007812 41.714844 C 91.480469 41.4375 91.847656 41.054688 92.113281 40.570312 C 92.375 40.089844 92.496094 39.570312 92.472656 39.023438 Z M 92.472656 39.023438" fill="#ffffff"></path></g><g clip-path="url(#e46c4b5e08)"><path fill-rule="nonzero" fill-opacity="1" d="M 55.507812 41.042969 L 58.300781 41.042969 L 58.300781 39.183594 L 55.507812 39.183594 L 55.507812 37.816406 L 59.21875 37.816406 L 59.21875 35.808594 L 53.269531 35.808594 L 53.269531 44.75 L 59.382812 44.75 L 59.382812 42.742188 L 55.507812 42.742188 Z M 55.507812 41.042969" fill="#ffffff"></path></g><g clip-path="url(#a40ca14ab6)"><path fill-rule="nonzero" fill-opacity="1" d="M 71.214844 41.125 L 74.007812 41.125 L 74.007812 39.265625 L 71.214844 39.265625 L 71.214844 37.898438 L 74.925781 37.898438 L 74.925781 35.890625 L 68.976562 35.890625 L 68.976562 44.828125 L 75.089844 44.828125 L 75.089844 42.820312 L 71.214844 42.820312 Z M 71.214844 41.125" fill="#ffffff"></path></g><g clip-path="url(#8a4fedf6a8)"><path fill-rule="nonzero" fill-opacity="1" d="M 65.148438 39.46875 L 64.109375 39.03125 C 63.882812 38.949219 63.671875 38.832031 63.480469 38.679688 C 63.351562 38.558594 63.289062 38.410156 63.292969 38.230469 C 63.292969 37.8125 63.582031 37.59375 64.160156 37.59375 C 64.472656 37.589844 64.757812 37.667969 65.015625 37.839844 C 65.277344 38.03125 65.492188 38.261719 65.667969 38.53125 L 67.152344 37.390625 C 66.550781 36.230469 65.535156 35.644531 64.132812 35.644531 C 63.296875 35.609375 62.550781 35.847656 61.890625 36.363281 C 61.289062 36.851562 61 37.484375 61.027344 38.261719 C 61.027344 39.382812 61.785156 40.28125 63.28125 40.9375 L 64.210938 41.347656 C 64.472656 41.453125 64.71875 41.582031 64.953125 41.742188 C 65.109375 41.871094 65.179688 42.039062 65.164062 42.242188 C 65.164062 42.71875 64.832031 42.960938 64.175781 42.960938 C 63.398438 42.960938 62.726562 42.574219 62.148438 41.816406 L 60.648438 42.957031 C 60.980469 43.558594 61.441406 44.03125 62.039062 44.371094 C 62.703125 44.746094 63.414062 44.925781 64.175781 44.910156 C 65.042969 44.941406 65.820312 44.691406 66.507812 44.164062 C 66.8125 43.917969 67.042969 43.617188 67.203125 43.261719 C 67.367188 42.90625 67.4375 42.53125 67.421875 42.140625 C 67.441406 41.550781 67.257812 41.03125 66.871094 40.582031 C 66.378906 40.085938 65.804688 39.714844 65.148438 39.46875 Z M 65.148438 39.46875" fill="#ffffff"></path></g><g clip-path="url(#934ff92e68)"><path fill-rule="nonzero" fill-opacity="1" d="M 79.101562 35.714844 L 76.304688 44.820312 L 78.601562 44.820312 L 79.027344 43.355469 L 81.585938 43.394531 L 81.984375 44.820312 L 84.199219 44.820312 L 81.328125 35.726562 Z M 79.386719 41.429688 L 79.40625 41.351562 L 80.230469 38.390625 L 81.121094 41.429688 Z M 79.386719 41.429688" fill="#ffffff"></path></g><g clip-path="url(#ababa30fb5)"><path fill-rule="nonzero" fill-opacity="1" d="M 98.523438 37.695312 C 99.511719 37.695312 100.308594 38.1875 100.898438 39.152344 L 102.597656 38 C 102.207031 37.269531 101.65625 36.699219 100.945312 36.277344 C 100.199219 35.84375 99.390625 35.632812 98.523438 35.644531 C 97.886719 35.628906 97.269531 35.738281 96.675781 35.96875 C 96.082031 36.199219 95.554688 36.539062 95.09375 36.980469 C 94.871094 37.195312 94.675781 37.429688 94.5 37.683594 C 94.328125 37.9375 94.179688 38.207031 94.0625 38.488281 C 93.941406 38.773438 93.851562 39.066406 93.789062 39.367188 C 93.730469 39.667969 93.699219 39.972656 93.699219 40.28125 C 93.699219 40.589844 93.730469 40.894531 93.789062 41.195312 C 93.851562 41.496094 93.941406 41.789062 94.0625 42.074219 C 94.179688 42.359375 94.328125 42.625 94.5 42.878906 C 94.675781 43.132812 94.871094 43.367188 95.09375 43.582031 C 95.554688 44.023438 96.082031 44.359375 96.675781 44.589844 C 97.273438 44.820312 97.886719 44.929688 98.523438 44.914062 C 99.390625 44.925781 100.199219 44.714844 100.945312 44.28125 C 101.65625 43.863281 102.207031 43.289062 102.597656 42.5625 L 100.898438 41.40625 C 100.308594 42.371094 99.511719 42.863281 98.523438 42.863281 C 97.820312 42.886719 97.214844 42.652344 96.710938 42.160156 C 96.210938 41.636719 95.980469 41.015625 96.011719 40.292969 C 95.976562 39.566406 96.210938 38.9375 96.710938 38.410156 C 97.214844 37.910156 97.816406 37.671875 98.523438 37.695312 Z M 98.523438 37.695312" fill="#ffffff"></path></g><g clip-path="url(#94cd6217d3)"><path fill-rule="nonzero" fill-opacity="1" d="M 109.683594 39.078125 L 106.265625 39.078125 L 106.265625 35.769531 L 104.027344 35.769531 L 104.027344 44.710938 L 106.265625 44.710938 L 106.265625 41.085938 L 109.683594 41.085938 L 109.683594 44.710938 L 111.921875 44.710938 L 111.921875 35.769531 L 109.683594 35.769531 Z M 109.683594 39.078125" fill="#ffffff"></path></g><path fill-rule="nonzero" fill-opacity="1" d="M 97.707031 33.351562 C 98.347656 33.367188 98.96875 33.257812 99.570312 33.023438 C 100.167969 32.789062 100.699219 32.449219 101.164062 32.003906 C 101.628906 31.578125 101.984375 31.074219 102.230469 30.492188 C 102.480469 29.910156 102.597656 29.304688 102.585938 28.675781 C 102.597656 28.042969 102.480469 27.4375 102.230469 26.855469 C 101.984375 26.277344 101.628906 25.773438 101.164062 25.34375 C 100.699219 24.898438 100.167969 24.5625 99.570312 24.328125 C 98.96875 24.09375 98.347656 23.984375 97.707031 23.996094 C 97.066406 23.984375 96.445312 24.09375 95.851562 24.328125 C 95.253906 24.558594 94.722656 24.898438 94.261719 25.34375 C 93.804688 25.773438 93.453125 26.28125 93.207031 26.859375 C 92.960938 27.441406 92.84375 28.042969 92.859375 28.675781 C 92.84375 29.304688 92.960938 29.910156 93.207031 30.492188 C 93.453125 31.070312 93.804688 31.578125 94.261719 32.007812 C 94.726562 32.453125 95.253906 32.792969 95.851562 33.023438 C 96.445312 33.257812 97.066406 33.367188 97.707031 33.351562 Z M 95.878906 26.785156 C 96.128906 26.554688 96.410156 26.375 96.726562 26.25 C 97.046875 26.125 97.375 26.0625 97.714844 26.0625 C 98.054688 26.0625 98.382812 26.125 98.699219 26.25 C 99.015625 26.375 99.296875 26.554688 99.546875 26.785156 C 100.054688 27.3125 100.296875 27.941406 100.269531 28.671875 C 100.300781 29.40625 100.058594 30.039062 99.546875 30.566406 C 99.296875 30.796875 99.015625 30.972656 98.699219 31.097656 C 98.382812 31.21875 98.054688 31.28125 97.714844 31.28125 C 97.375 31.28125 97.046875 31.21875 96.730469 31.097656 C 96.414062 30.972656 96.128906 30.796875 95.878906 30.566406 C 95.375 30.035156 95.140625 29.40625 95.171875 28.671875 C 95.144531 27.945312 95.378906 27.316406 95.878906 26.785156 Z M 95.878906 26.785156" fill="#ffffff"></path><path fill-rule="nonzero" fill-opacity="1" d="M 47.347656 23.996094 C 46.707031 23.984375 46.089844 24.09375 45.492188 24.328125 C 44.894531 24.558594 44.367188 24.898438 43.90625 25.34375 C 43.445312 25.773438 43.09375 26.28125 42.847656 26.859375 C 42.605469 27.441406 42.488281 28.042969 42.5 28.675781 C 42.488281 29.304688 42.605469 29.910156 42.847656 30.492188 C 43.09375 31.070312 43.445312 31.578125 43.90625 32.007812 C 44.136719 32.222656 44.390625 32.414062 44.65625 32.582031 C 44.925781 32.75 45.207031 32.890625 45.503906 33.003906 C 45.800781 33.121094 46.101562 33.207031 46.414062 33.265625 C 46.726562 33.324219 47.039062 33.355469 47.355469 33.355469 C 47.671875 33.355469 47.988281 33.324219 48.296875 33.265625 C 48.609375 33.207031 48.914062 33.121094 49.207031 33.003906 C 49.503906 32.890625 49.785156 32.75 50.054688 32.582031 C 50.320312 32.414062 50.574219 32.222656 50.804688 32.007812 C 51.269531 31.578125 51.625 31.074219 51.875 30.496094 C 52.121094 29.914062 52.238281 29.308594 52.226562 28.675781 C 52.242188 28.046875 52.125 27.441406 51.878906 26.859375 C 51.632812 26.277344 51.28125 25.773438 50.820312 25.34375 C 50.351562 24.898438 49.820312 24.558594 49.21875 24.324219 C 48.617188 24.089844 47.992188 23.980469 47.347656 23.996094 Z M 49.1875 30.570312 C 48.9375 30.800781 48.65625 30.976562 48.339844 31.097656 C 48.023438 31.222656 47.695312 31.285156 47.355469 31.285156 C 47.015625 31.285156 46.6875 31.222656 46.371094 31.097656 C 46.054688 30.976562 45.773438 30.800781 45.523438 30.570312 C 45.019531 30.039062 44.78125 29.40625 44.8125 28.675781 C 44.785156 27.945312 45.019531 27.316406 45.523438 26.785156 C 45.769531 26.554688 46.054688 26.375 46.371094 26.25 C 46.6875 26.125 47.015625 26.0625 47.355469 26.0625 C 47.695312 26.0625 48.023438 26.125 48.339844 26.25 C 48.65625 26.375 48.941406 26.554688 49.1875 26.785156 C 49.699219 27.3125 49.941406 27.941406 49.914062 28.671875 C 49.945312 29.410156 49.703125 30.039062 49.1875 30.570312 Z M 49.1875 30.570312" fill="#ffffff"></path><path fill-rule="nonzero" fill-opacity="1" d="M 86.78125 33.351562 C 87.421875 33.367188 88.039062 33.253906 88.636719 33.023438 C 89.234375 32.789062 89.765625 32.449219 90.230469 32.003906 C 90.691406 31.578125 91.046875 31.074219 91.296875 30.492188 C 91.542969 29.910156 91.660156 29.304688 91.648438 28.675781 C 91.660156 28.042969 91.542969 27.4375 91.296875 26.855469 C 91.046875 26.277344 90.691406 25.773438 90.230469 25.34375 C 89.996094 25.128906 89.746094 24.9375 89.476562 24.769531 C 89.207031 24.601562 88.925781 24.460938 88.628906 24.34375 C 88.335938 24.230469 88.03125 24.140625 87.71875 24.082031 C 87.410156 24.023438 87.09375 23.996094 86.777344 23.996094 C 86.460938 23.996094 86.148438 24.023438 85.835938 24.082031 C 85.523438 24.140625 85.222656 24.230469 84.925781 24.34375 C 84.628906 24.460938 84.347656 24.601562 84.078125 24.769531 C 83.8125 24.9375 83.558594 25.128906 83.328125 25.34375 C 82.871094 25.777344 82.519531 26.28125 82.277344 26.859375 C 82.035156 27.441406 81.917969 28.046875 81.933594 28.675781 C 81.921875 29.304688 82.039062 29.910156 82.28125 30.492188 C 82.527344 31.070312 82.878906 31.578125 83.339844 32.007812 C 83.800781 32.453125 84.328125 32.792969 84.925781 33.023438 C 85.523438 33.257812 86.140625 33.367188 86.78125 33.351562 Z M 84.953125 26.785156 C 85.203125 26.554688 85.484375 26.375 85.800781 26.25 C 86.117188 26.125 86.445312 26.0625 86.785156 26.0625 C 87.128906 26.0625 87.457031 26.125 87.773438 26.25 C 88.089844 26.375 88.371094 26.554688 88.621094 26.785156 C 89.132812 27.3125 89.371094 27.941406 89.34375 28.671875 C 89.375 29.40625 89.132812 30.039062 88.621094 30.566406 C 88.371094 30.796875 88.085938 30.972656 87.769531 31.097656 C 87.453125 31.222656 87.125 31.28125 86.785156 31.28125 C 86.445312 31.28125 86.117188 31.222656 85.800781 31.097656 C 85.484375 30.972656 85.203125 30.796875 84.953125 30.566406 C 84.449219 30.035156 84.210938 29.402344 84.242188 28.671875 C 84.214844 27.945312 84.453125 27.316406 84.953125 26.785156 Z M 84.953125 26.785156" fill="#ffffff"></path><path fill-rule="nonzero" fill-opacity="1" d="M 61.601562 24.164062 L 59.34375 24.164062 L 59.34375 29.546875 C 59.351562 29.78125 59.3125 30.007812 59.230469 30.226562 C 59.148438 30.445312 59.023438 30.640625 58.863281 30.808594 C 58.699219 30.980469 58.511719 31.109375 58.296875 31.203125 C 58.082031 31.292969 57.855469 31.339844 57.621094 31.339844 C 57.386719 31.339844 57.164062 31.292969 56.949219 31.203125 C 56.730469 31.109375 56.542969 30.980469 56.378906 30.808594 C 56.21875 30.640625 56.097656 30.445312 56.011719 30.226562 C 55.929688 30.007812 55.890625 29.78125 55.902344 29.546875 L 55.902344 24.164062 L 53.644531 24.164062 L 53.644531 29.359375 C 53.597656 30.484375 53.96875 31.445312 54.761719 32.246094 C 55.152344 32.597656 55.597656 32.871094 56.089844 33.058594 C 56.582031 33.25 57.089844 33.34375 57.617188 33.34375 C 58.148438 33.34375 58.65625 33.25 59.148438 33.058594 C 59.640625 32.871094 60.085938 32.597656 60.476562 32.246094 C 61.269531 31.445312 61.644531 30.484375 61.601562 29.359375 Z M 61.601562 24.164062" fill="#ffffff"></path><path fill-rule="nonzero" fill-opacity="1" d="M 70.8125 24.164062 L 63.078125 24.164062 L 63.078125 26.1875 L 65.816406 26.1875 L 65.816406 33.1875 L 68.074219 33.1875 L 68.074219 26.1875 L 70.8125 26.1875 Z M 70.8125 24.164062" fill="#ffffff"></path><path fill-rule="nonzero" fill-opacity="1" d="M 80.511719 28.644531 C 80.535156 28.027344 80.425781 27.429688 80.183594 26.859375 C 79.9375 26.289062 79.585938 25.800781 79.121094 25.386719 C 78.101562 24.523438 76.925781 24.117188 75.59375 24.164062 L 72.480469 24.164062 L 72.480469 33.1875 L 75.59375 33.1875 C 76.933594 33.230469 78.105469 32.808594 79.113281 31.921875 C 79.578125 31.503906 79.929688 31.011719 80.175781 30.4375 C 80.417969 29.867188 80.53125 29.269531 80.511719 28.644531 Z M 77.460938 30.488281 C 76.921875 30.964844 76.296875 31.1875 75.578125 31.160156 L 74.730469 31.160156 L 74.730469 26.203125 L 75.578125 26.203125 C 76.285156 26.171875 76.914062 26.382812 77.464844 26.828125 C 78 27.316406 78.246094 27.921875 78.199219 28.644531 C 78.234375 29.375 77.988281 29.988281 77.460938 30.488281 Z M 77.460938 30.488281" fill="#ffffff"></path><g clip-path="url(#f89184cd7d)"><path fill-rule="nonzero" fill-opacity="1" d="M 106.351562 28.667969 L 106.351562 26.25 L 107.679688 26.25 C 107.84375 26.242188 108 26.265625 108.152344 26.320312 C 108.300781 26.378906 108.4375 26.464844 108.550781 26.578125 C 108.664062 26.695312 108.75 26.828125 108.808594 26.980469 C 108.867188 27.132812 108.890625 27.289062 108.878906 27.449219 C 108.898438 27.796875 108.789062 28.09375 108.550781 28.34375 C 108.308594 28.585938 108.019531 28.695312 107.679688 28.679688 L 106.351562 28.679688 L 109.398438 33.207031 L 112.007812 33.207031 L 109.804688 30.164062 C 110.28125 29.878906 110.652344 29.496094 110.917969 29.007812 C 111.179688 28.519531 111.296875 27.996094 111.273438 27.441406 C 111.289062 26.988281 111.210938 26.554688 111.03125 26.136719 C 110.855469 25.71875 110.597656 25.359375 110.257812 25.058594 C 109.507812 24.421875 108.644531 24.121094 107.664062 24.160156 L 104 24.160156 L 104 33.183594 L 106.351562 33.199219 Z M 106.351562 28.667969" fill="#ffffff"></path></g><g clip-path="url(#5102ed2028)"><path fill-rule="nonzero" fill-opacity="1" d="M 38.394531 31.898438 C 38.394531 29.515625 37.550781 27.574219 35.886719 26.140625 C 34.222656 24.707031 32.066406 23.972656 29.488281 23.972656 L 20.441406 23.972656 L 20.441406 27.382812 C 20.273438 27.011719 20.082031 26.65625 19.875 26.308594 C 19.667969 25.964844 19.4375 25.628906 19.191406 25.308594 C 18.945312 24.988281 18.683594 24.683594 18.402344 24.394531 C 18.121094 24.101562 17.824219 23.828125 17.511719 23.570312 C 17.199219 23.316406 16.875 23.074219 16.535156 22.855469 C 16.199219 22.636719 15.847656 22.433594 15.488281 22.253906 C 15.125 22.074219 14.753906 21.914062 14.375 21.777344 C 13.996094 21.636719 13.609375 21.519531 13.21875 21.425781 C 12.824219 21.332031 12.429688 21.257812 12.027344 21.207031 C 11.628906 21.160156 11.226562 21.132812 10.820312 21.128906 C 10.417969 21.125 10.015625 21.140625 9.613281 21.183594 C 9.210938 21.222656 8.816406 21.289062 8.421875 21.375 C 8.027344 21.460938 7.636719 21.570312 7.253906 21.699219 C 6.871094 21.828125 6.5 21.980469 6.132812 22.152344 C 5.769531 22.328125 5.414062 22.519531 5.070312 22.734375 C 4.726562 22.945312 4.398438 23.175781 4.082031 23.425781 C 3.761719 23.675781 3.460938 23.945312 3.175781 24.230469 C 2.886719 24.515625 2.617188 24.8125 2.363281 25.128906 C 2.109375 25.445312 1.875 25.773438 1.660156 26.113281 C 1.445312 26.457031 1.246094 26.808594 1.070312 27.171875 C 0.894531 27.535156 0.738281 27.910156 0.605469 28.289062 C 0.472656 28.671875 0.359375 29.058594 0.269531 29.453125 C 0.179688 29.847656 0.109375 30.246094 0.0664062 30.648438 C 0.0195312 31.050781 -0.00390625 31.453125 -0.00390625 31.859375 C -0.00390625 32.261719 0.0195312 32.664062 0.0664062 33.066406 C 0.109375 33.46875 0.179688 33.867188 0.269531 34.261719 C 0.359375 34.65625 0.472656 35.042969 0.605469 35.425781 C 0.738281 35.808594 0.894531 36.179688 1.070312 36.542969 C 1.246094 36.90625 1.445312 37.261719 1.660156 37.601562 C 1.875 37.945312 2.109375 38.273438 2.363281 38.585938 C 2.617188 38.902344 2.886719 39.203125 3.175781 39.488281 C 3.460938 39.773438 3.761719 40.039062 4.082031 40.289062 C 4.398438 40.539062 4.726562 40.769531 5.070312 40.984375 C 5.414062 41.195312 5.769531 41.390625 6.132812 41.5625 C 6.5 41.734375 6.871094 41.886719 7.253906 42.015625 C 7.636719 42.148438 8.027344 42.253906 8.421875 42.34375 C 8.816406 42.429688 9.210938 42.492188 9.613281 42.535156 C 10.015625 42.574219 10.417969 42.59375 10.820312 42.589844 C 11.226562 42.585938 11.628906 42.558594 12.027344 42.507812 C 12.429688 42.457031 12.824219 42.386719 13.21875 42.289062 C 13.609375 42.195312 13.996094 42.078125 14.375 41.941406 C 14.753906 41.800781 15.125 41.640625 15.488281 41.460938 C 15.847656 41.28125 16.199219 41.082031 16.535156 40.859375 C 16.875 40.640625 17.199219 40.402344 17.511719 40.144531 C 17.824219 39.886719 18.121094 39.613281 18.402344 39.324219 C 18.683594 39.03125 18.945312 38.726562 19.191406 38.40625 C 19.4375 38.085938 19.667969 37.753906 19.875 37.40625 C 20.082031 37.058594 20.273438 36.703125 20.441406 36.335938 L 20.441406 44.90625 L 26.242188 44.855469 L 26.242188 29 L 29.523438 29 C 30.351562 28.960938 31.070312 29.226562 31.675781 29.792969 C 32.25 30.378906 32.523438 31.078125 32.488281 31.898438 C 32.519531 32.722656 32.25 33.429688 31.675781 34.019531 C 31.074219 34.597656 30.355469 34.867188 29.523438 34.828125 L 26.242188 34.828125 L 33.738281 44.882812 L 39.828125 44.882812 L 34.769531 38.457031 C 37.175781 36.996094 38.394531 34.789062 38.394531 31.898438 Z M 10.710938 37.074219 C 10.367188 37.074219 10.03125 37.042969 9.695312 36.976562 C 9.359375 36.910156 9.03125 36.808594 8.714844 36.679688 C 8.402344 36.546875 8.101562 36.386719 7.816406 36.199219 C 7.53125 36.007812 7.269531 35.789062 7.027344 35.546875 C 6.785156 35.304688 6.566406 35.042969 6.378906 34.757812 C 6.1875 34.472656 6.027344 34.171875 5.894531 33.855469 C 5.765625 33.539062 5.667969 33.210938 5.597656 32.875 C 5.53125 32.539062 5.5 32.199219 5.5 31.859375 C 5.5 31.515625 5.53125 31.175781 5.597656 30.839844 C 5.664062 30.503906 5.765625 30.175781 5.894531 29.859375 C 6.027344 29.542969 6.1875 29.242188 6.375 28.957031 C 6.566406 28.671875 6.78125 28.410156 7.023438 28.167969 C 7.265625 27.925781 7.53125 27.707031 7.8125 27.515625 C 8.097656 27.328125 8.398438 27.167969 8.714844 27.035156 C 9.03125 26.902344 9.355469 26.804688 9.691406 26.738281 C 10.027344 26.671875 10.367188 26.636719 10.707031 26.636719 C 11.050781 26.636719 11.390625 26.671875 11.726562 26.738281 C 12.0625 26.804688 12.386719 26.90625 12.703125 27.035156 C 13.019531 27.167969 13.320312 27.328125 13.601562 27.519531 C 13.886719 27.707031 14.152344 27.925781 14.390625 28.167969 C 14.632812 28.410156 14.851562 28.675781 15.039062 28.960938 C 15.230469 29.242188 15.390625 29.546875 15.519531 29.863281 C 15.652344 30.179688 15.75 30.503906 15.816406 30.839844 C 15.882812 31.175781 15.917969 31.515625 15.917969 31.859375 C 15.917969 32.203125 15.882812 32.542969 15.816406 32.878906 C 15.75 33.214844 15.652344 33.539062 15.519531 33.855469 C 15.390625 34.171875 15.230469 34.472656 15.039062 34.757812 C 14.847656 35.042969 14.632812 35.304688 14.390625 35.546875 C 14.148438 35.789062 13.886719 36.007812 13.601562 36.195312 C 13.320312 36.386719 13.019531 36.546875 12.703125 36.679688 C 12.386719 36.808594 12.0625 36.910156 11.726562 36.976562 C 11.390625 37.042969 11.050781 37.074219 10.710938 37.074219 Z M 10.710938 37.074219" fill="#ffffff"></path></g></svg>