<svg version="1.0" preserveAspectRatio="xMidYMid meet" height="88" viewBox="0 0 112.5 66" zoomAndPan="magnify" width="150" xmlns:xlink="http://www.w3.org/1999/xlink" xmlns="http://www.w3.org/2000/svg"><defs><clipPath id="cc0026d8ee"><path clip-rule="nonzero" d="M 0 22.105469 L 110 22.105469 L 110 43.757812 L 0 43.757812 Z M 0 22.105469"></path></clipPath></defs><g clip-path="url(#cc0026d8ee)"><path fill-rule="nonzero" fill-opacity="1" d="M 93.589844 22.722656 C 92.507812 22.722656 90.886719 23.621094 90.886719 24.816406 C 90.886719 25.8125 91.585938 26.324219 92.589844 26.324219 C 93.847656 26.324219 95.828125 25.789062 95.828125 24.253906 C 95.828125 22.988281 94.667969 22.722656 93.589844 22.722656 Z M 31.503906 23.609375 C 31.367188 23.582031 31.355469 23.71875 31.355469 23.71875 C 30.566406 25.480469 28.878906 26.734375 27 27.273438 C 27 27.273438 26.914062 27.292969 26.914062 27.398438 L 26.914062 28.515625 C 26.914062 28.679688 27 28.636719 27 28.636719 L 28.058594 28.636719 C 28.175781 28.636719 28.144531 28.734375 28.144531 28.734375 L 28.144531 35.84375 C 28.144531 37.960938 29.023438 39.058594 31.308594 39.058594 C 33.34375 39.058594 33.496094 39.007812 35.105469 37.855469 C 35.105469 37.855469 35.210938 37.816406 35.15625 37.695312 C 35.109375 37.597656 34.691406 36.613281 34.65625 36.492188 C 34.609375 36.339844 34.511719 36.429688 34.511719 36.429688 C 34.214844 36.578125 34.148438 36.574219 33.765625 36.574219 C 33.390625 36.574219 32.746094 36.429688 32.746094 35.675781 L 32.746094 28.734375 C 32.746094 28.734375 32.71875 28.636719 32.855469 28.636719 L 34.472656 28.636719 C 34.472656 28.636719 34.578125 28.691406 34.605469 28.539062 C 34.644531 28.359375 34.949219 26.847656 34.949219 26.847656 C 34.949219 26.847656 34.996094 26.738281 34.875 26.738281 L 32.828125 26.738281 C 32.828125 26.738281 32.746094 26.777344 32.746094 26.640625 L 32.746094 25.765625 C 32.746094 25.242188 32.777344 24.554688 32.890625 23.976562 C 32.890625 23.976562 32.953125 23.882812 32.804688 23.855469 C 32.597656 23.8125 31.636719 23.640625 31.503906 23.609375 Z M 58.964844 24.5 C 57.609375 24.5 57.160156 24.863281 56.859375 25.765625 C 56.859375 25.765625 56.65625 26.355469 56.59375 26.570312 C 56.546875 26.71875 56.445312 26.679688 56.445312 26.679688 C 55.777344 26.574219 55.054688 26.375 53.792969 26.375 C 51.058594 26.375 48.191406 27.882812 48.191406 31.390625 C 48.191406 33.875 50.238281 35.304688 52.332031 35.675781 C 52.332031 35.675781 52.664062 35.722656 52.332031 35.820312 C 51.710938 36 50.40625 36.773438 48.921875 37.015625 C 48.921875 37.015625 48.777344 37.03125 48.851562 37.207031 C 48.886719 37.296875 49.296875 38.328125 49.363281 38.5 C 49.40625 38.617188 49.554688 38.597656 49.554688 38.597656 C 50.25 38.453125 52.242188 38.636719 52.601562 38.679688 C 52.910156 38.722656 52.601562 38.765625 52.601562 38.765625 C 51.554688 38.945312 50.335938 39.703125 50.335938 40.835938 C 50.335938 42.808594 52.59375 43.269531 54.804688 43.269531 C 56.308594 43.269531 59.941406 42.636719 59.941406 39.984375 C 59.941406 37.324219 55.832031 36.804688 53.816406 36.613281 C 53.472656 36.578125 53.816406 36.515625 53.816406 36.515625 C 56.824219 35.773438 60.34375 34.976562 60.34375 31.195312 C 60.34375 28.347656 57.980469 27.589844 57.980469 27.105469 C 57.980469 26.835938 58.140625 26.585938 58.441406 26.570312 C 58.964844 26.539062 58.988281 26.585938 59.246094 26.738281 C 59.246094 26.738281 59.324219 26.871094 59.367188 26.691406 C 59.394531 26.585938 59.84375 24.816406 59.867188 24.683594 C 59.898438 24.519531 59.757812 24.558594 59.757812 24.558594 C 59.496094 24.535156 59.222656 24.5 58.964844 24.5 Z M 17.648438 25.8125 C 17.597656 25.832031 17.589844 25.898438 17.589844 25.898438 C 17.589844 25.898438 16.140625 29.464844 16.078125 29.613281 C 16.019531 29.761719 16.128906 29.769531 16.128906 29.769531 C 16.128906 29.769531 17.332031 30.199219 17.464844 30.257812 C 17.601562 30.316406 17.648438 30.222656 17.648438 30.222656 C 18.304688 29.414062 18.964844 28.90625 20.375 28.90625 C 21.480469 28.90625 22.03125 29.320312 22.03125 30.316406 L 22.03125 30.695312 C 22.03125 30.828125 21.984375 30.839844 21.984375 30.839844 L 18.585938 30.925781 C 16.351562 30.925781 14.546875 32.535156 14.546875 35.359375 C 14.546875 37.621094 16.253906 39.058594 18.539062 39.058594 C 19.886719 39.058594 20.953125 38.476562 21.933594 37.695312 C 21.933594 37.695312 22.097656 37.441406 22.140625 37.695312 C 22.1875 37.949219 22.28125 38.273438 22.347656 38.558594 C 22.382812 38.707031 22.480469 38.695312 22.480469 38.695312 L 27.242188 38.695312 C 27.242188 38.695312 27.425781 38.753906 27.425781 38.558594 L 27.425781 37.367188 C 27.425781 37.367188 27.460938 37.234375 27.265625 37.234375 L 26.71875 37.234375 C 26.597656 37.234375 26.621094 37.015625 26.621094 37.015625 L 26.621094 30.414062 C 26.621094 27.542969 24.769531 26.375 21.957031 26.375 C 20.964844 26.375 20.007812 26.511719 19.074219 26.875 C 19.074219 26.875 18.871094 27 18.988281 26.714844 C 19.046875 26.578125 19.097656 26.421875 19.097656 26.421875 C 19.097656 26.421875 19.160156 26.289062 19.011719 26.226562 C 18.847656 26.167969 17.898438 25.878906 17.722656 25.8125 C 17.691406 25.804688 17.667969 25.808594 17.648438 25.8125 Z M 38.355469 25.8125 C 38.304688 25.832031 38.296875 25.898438 38.296875 25.898438 C 38.296875 25.898438 36.847656 29.464844 36.785156 29.613281 C 36.726562 29.761719 36.835938 29.769531 36.835938 29.769531 C 36.835938 29.769531 38.039062 30.199219 38.175781 30.257812 C 38.308594 30.316406 38.355469 30.222656 38.355469 30.222656 C 39.011719 29.414062 39.660156 28.90625 41.070312 28.90625 C 42.175781 28.90625 42.726562 29.320312 42.726562 30.316406 L 42.726562 30.695312 C 42.726562 30.828125 42.691406 30.839844 42.691406 30.839844 L 39.292969 30.925781 C 37.058594 30.925781 35.253906 32.535156 35.253906 35.359375 C 35.253906 37.621094 36.960938 39.058594 39.246094 39.058594 C 40.59375 39.058594 41.652344 38.476562 42.628906 37.695312 C 42.628906 37.695312 42.804688 37.441406 42.847656 37.695312 C 42.894531 37.949219 42.988281 38.273438 43.054688 38.558594 C 43.089844 38.707031 43.191406 38.695312 43.191406 38.695312 L 47.9375 38.695312 C 47.9375 38.695312 48.132812 38.753906 48.132812 38.558594 L 48.132812 37.367188 C 48.132812 37.367188 48.167969 37.234375 47.972656 37.234375 L 47.425781 37.234375 C 47.308594 37.234375 47.328125 37.015625 47.328125 37.015625 L 47.328125 30.414062 C 47.328125 27.542969 45.464844 26.375 42.652344 26.375 C 41.660156 26.375 40.71875 26.511719 39.78125 26.875 C 39.78125 26.875 39.578125 27 39.695312 26.714844 C 39.753906 26.578125 39.792969 26.410156 39.792969 26.410156 C 39.792969 26.410156 39.855469 26.289062 39.707031 26.226562 C 39.542969 26.167969 38.605469 25.878906 38.429688 25.8125 C 38.398438 25.804688 38.375 25.808594 38.355469 25.8125 Z M 99.578125 25.8125 C 99.523438 25.832031 99.515625 25.898438 99.515625 25.898438 C 99.515625 25.898438 98.066406 29.464844 98.007812 29.613281 C 97.949219 29.761719 98.054688 29.769531 98.054688 29.769531 C 98.054688 29.769531 99.261719 30.199219 99.394531 30.257812 C 99.53125 30.316406 99.578125 30.222656 99.578125 30.222656 C 100.234375 29.414062 100.882812 28.90625 102.292969 28.90625 C 103.398438 28.90625 103.949219 29.320312 103.949219 30.316406 L 103.949219 30.695312 C 103.949219 30.828125 103.910156 30.839844 103.910156 30.839844 L 100.515625 30.925781 C 98.28125 30.925781 96.472656 32.535156 96.472656 35.359375 C 96.472656 37.621094 98.183594 39.058594 100.464844 39.058594 C 101.816406 39.058594 102.871094 38.476562 103.851562 37.695312 C 103.851562 37.695312 104.023438 37.441406 104.070312 37.695312 C 104.113281 37.949219 104.210938 38.273438 104.277344 38.558594 C 104.3125 38.707031 104.410156 38.695312 104.410156 38.695312 L 109.160156 38.695312 C 109.160156 38.695312 109.355469 38.753906 109.355469 38.558594 L 109.355469 37.367188 C 109.355469 37.367188 109.390625 37.234375 109.195312 37.234375 L 108.648438 37.234375 C 108.527344 37.234375 108.550781 37.015625 108.550781 37.015625 L 108.550781 30.414062 C 108.550781 27.542969 106.6875 26.375 103.875 26.375 C 102.882812 26.375 101.9375 26.511719 101.003906 26.875 C 101.003906 26.875 100.796875 27 100.917969 26.714844 C 100.972656 26.578125 101.015625 26.410156 101.015625 26.410156 C 101.015625 26.410156 101.078125 26.289062 100.929688 26.226562 C 100.765625 26.167969 99.828125 25.878906 99.652344 25.8125 C 99.621094 25.804688 99.597656 25.808594 99.578125 25.8125 Z M 67.914062 26.375 C 63.925781 26.375 60.839844 28.785156 60.839844 32.703125 C 60.839844 36.648438 63.925781 39.058594 67.914062 39.058594 C 71.929688 39.058594 75.023438 36.648438 75.023438 32.703125 C 75.023438 28.785156 71.929688 26.375 67.914062 26.375 Z M 84.761719 26.375 C 83.085938 26.375 81.828125 27.304688 80.585938 28.25 C 80.585938 28.25 80.464844 28.417969 80.464844 28.222656 L 80.464844 26.472656 C 80.464844 26.335938 80.34375 26.410156 80.34375 26.410156 L 75.046875 27.808594 C 75.046875 27.808594 74.9375 27.808594 74.9375 27.945312 L 74.9375 29.160156 C 74.9375 29.296875 75.058594 29.234375 75.058594 29.234375 C 75.058594 29.234375 75.527344 29.125 75.707031 29.0625 C 75.882812 29.003906 75.828125 29.148438 75.828125 29.148438 L 75.828125 37.125 C 75.828125 37.125 75.863281 37.234375 75.742188 37.234375 L 75.023438 37.234375 C 75.023438 37.234375 74.9375 37.195312 74.9375 37.34375 L 74.9375 38.570312 C 74.9375 38.734375 75.023438 38.695312 75.023438 38.695312 L 81.304688 38.695312 C 81.304688 38.695312 81.390625 38.714844 81.390625 38.609375 L 81.390625 37.34375 C 81.390625 37.195312 81.269531 37.234375 81.269531 37.234375 L 80.515625 37.234375 C 80.394531 37.234375 80.417969 37.148438 80.417969 37.148438 L 80.417969 30.402344 C 80.417969 30.285156 80.503906 30.222656 80.503906 30.222656 C 81.074219 29.738281 81.664062 29.296875 82.472656 29.296875 C 83.152344 29.296875 83.800781 29.660156 83.800781 30.367188 L 83.800781 37.148438 C 83.800781 37.148438 83.835938 37.234375 83.714844 37.234375 L 82.984375 37.234375 C 82.984375 37.234375 82.851562 37.222656 82.851562 37.34375 L 82.851562 38.609375 C 82.851562 38.714844 82.960938 38.695312 82.960938 38.695312 L 89.132812 38.695312 C 89.132812 38.695312 89.253906 38.734375 89.253906 38.570312 L 89.253906 37.34375 C 89.253906 37.207031 89.144531 37.234375 89.144531 37.234375 L 88.488281 37.234375 C 88.382812 37.234375 88.402344 37.109375 88.402344 37.109375 L 88.402344 29.832031 C 88.402344 28.492188 87.949219 26.375 84.761719 26.375 Z M 9.40625 26.386719 C 8.292969 26.386719 7.449219 26.839844 6.375 27.480469 C 6.375 27.480469 6.253906 27.539062 6.253906 27.421875 L 6.253906 26.507812 C 6.253906 26.375 6.132812 26.410156 6.132812 26.410156 L 0.886719 27.761719 C 0.886719 27.761719 0.777344 27.761719 0.777344 27.894531 L 0.777344 29.113281 C 0.777344 29.277344 0.898438 29.222656 0.898438 29.222656 L 1.507812 29.078125 C 1.507812 29.078125 1.652344 29.011719 1.652344 29.175781 L 1.652344 40.847656 C 1.652344 40.847656 1.660156 41.019531 1.496094 41.019531 L 0.921875 41.019531 C 0.921875 41.019531 0.777344 40.996094 0.777344 41.175781 L 0.777344 42.320312 C 0.777344 42.484375 0.972656 42.480469 0.972656 42.480469 L 7.753906 42.480469 C 7.753906 42.480469 7.886719 42.429688 7.886719 42.308594 L 7.886719 41.175781 C 7.886719 41.011719 7.738281 41.019531 7.738281 41.019531 L 6.402344 41.019531 C 6.25 41.019531 6.253906 40.8125 6.253906 40.8125 L 6.253906 38.707031 C 6.253906 38.585938 6.351562 38.632812 6.351562 38.632812 C 7.027344 38.976562 7.976562 39.070312 8.691406 39.070312 C 12.40625 39.070312 14.558594 35.636719 14.558594 32.207031 C 14.558594 28.722656 12.292969 26.386719 9.40625 26.386719 Z M 95.5625 26.398438 C 95.53125 26.394531 95.5 26.410156 95.5 26.410156 L 90.230469 27.859375 C 90.230469 27.859375 90.132812 27.863281 90.132812 27.96875 L 90.132812 29.148438 C 90.132812 29.3125 90.277344 29.246094 90.277344 29.246094 C 90.277344 29.246094 90.621094 29.171875 90.921875 29.125 C 91.074219 29.101562 91.03125 29.238281 91.03125 29.34375 L 91.03125 37.109375 C 91.03125 37.109375 91.070312 37.234375 90.921875 37.234375 L 90.179688 37.234375 C 90.179688 37.234375 90.082031 37.191406 90.082031 37.355469 L 90.082031 38.597656 C 90.082031 38.746094 90.179688 38.695312 90.179688 38.695312 L 96.351562 38.695312 C 96.5 38.695312 96.449219 38.570312 96.449219 38.570312 C 96.449219 38.570312 96.445312 37.546875 96.449219 37.355469 C 96.453125 37.191406 96.339844 37.234375 96.339844 37.234375 L 95.730469 37.234375 C 95.582031 37.234375 95.621094 37.125 95.621094 37.125 L 95.621094 26.496094 C 95.621094 26.421875 95.589844 26.402344 95.5625 26.398438 Z M 53.597656 27.90625 C 55.480469 27.90625 56.253906 31.582031 56.253906 32.898438 C 56.253906 34.066406 55.878906 34.53125 54.949219 34.53125 C 53.066406 34.53125 52.285156 30.855469 52.285156 29.539062 C 52.285156 28.371094 52.667969 27.90625 53.597656 27.90625 Z M 67.136719 28.222656 C 69.671875 28.222656 70.433594 32.703125 70.433594 34.457031 C 70.433594 35.773438 70.074219 37.207031 68.71875 37.207031 C 66.183594 37.207031 65.429688 32.726562 65.429688 30.976562 C 65.429688 30.074219 65.425781 28.222656 67.136719 28.222656 Z M 6.972656 28.96875 C 7.75 28.96875 9.96875 29.1875 9.96875 33.570312 C 9.96875 36.296875 9.304688 37.222656 7.800781 37.222656 C 6.597656 37.222656 6.253906 36.320312 6.253906 35.25 L 6.253906 29.269531 C 6.253906 29.105469 6.390625 29.0625 6.390625 29.0625 Z M 21.300781 32.386719 L 21.910156 32.386719 C 22.058594 32.386719 22.03125 32.484375 22.03125 32.484375 L 22.03125 34.726562 C 22.03125 35.648438 21.796875 36.503906 20.644531 36.503906 C 19.414062 36.503906 19.148438 35.429688 19.148438 34.480469 C 19.148438 33.238281 20.046875 32.386719 21.300781 32.386719 Z M 42.007812 32.386719 L 42.617188 32.386719 C 42.765625 32.386719 42.726562 32.484375 42.726562 32.484375 L 42.726562 34.726562 C 42.726562 35.648438 42.507812 36.503906 41.351562 36.503906 C 40.121094 36.503906 39.84375 35.433594 39.84375 34.480469 C 39.84375 33.238281 40.753906 32.386719 42.007812 32.386719 Z M 103.230469 32.386719 L 103.839844 32.386719 C 103.988281 32.386719 103.949219 32.484375 103.949219 32.484375 L 103.949219 34.726562 C 103.949219 35.648438 103.726562 36.503906 102.574219 36.503906 C 101.34375 36.503906 101.0625 35.433594 101.0625 34.480469 C 101.0625 33.238281 101.976562 32.386719 103.230469 32.386719 Z M 54.378906 39.230469 C 54.40625 39.230469 54.425781 39.242188 54.425781 39.242188 C 55.253906 39.746094 55.851562 40.125 55.851562 41.203125 C 55.851562 41.808594 55.527344 42.101562 54.902344 42.101562 C 54.199219 42.101562 53.867188 41.445312 53.867188 40.835938 C 53.867188 40.300781 54.058594 39.496094 54.242188 39.300781 C 54.300781 39.242188 54.347656 39.230469 54.378906 39.230469 Z M 54.378906 39.230469" fill="#ffffff"></path></g><path fill-rule="nonzero" fill-opacity="1" d="M 109.933594 24.863281 C 109.851562 24.820312 109.722656 24.800781 109.546875 24.800781 L 109.277344 24.800781 L 109.277344 25.429688 L 109.5625 25.429688 C 109.699219 25.429688 109.800781 25.417969 109.867188 25.390625 C 109.992188 25.34375 110.050781 25.253906 110.050781 25.117188 C 110.050781 24.992188 110.011719 24.910156 109.933594 24.863281 M 109.59375 24.582031 C 109.816406 24.582031 109.976562 24.601562 110.078125 24.644531 C 110.257812 24.71875 110.351562 24.867188 110.351562 25.089844 C 110.351562 25.246094 110.292969 25.363281 110.179688 25.4375 C 110.121094 25.476562 110.035156 25.503906 109.925781 25.523438 C 110.0625 25.542969 110.160156 25.601562 110.222656 25.695312 C 110.285156 25.789062 110.316406 25.878906 110.316406 25.964844 L 110.316406 26.09375 C 110.316406 26.136719 110.320312 26.179688 110.324219 26.226562 C 110.324219 26.273438 110.332031 26.300781 110.339844 26.316406 L 110.351562 26.339844 L 110.0625 26.339844 C 110.058594 26.332031 110.058594 26.328125 110.058594 26.320312 C 110.054688 26.316406 110.054688 26.308594 110.050781 26.300781 L 110.046875 26.246094 L 110.046875 26.105469 C 110.046875 25.902344 109.988281 25.769531 109.878906 25.703125 C 109.808594 25.667969 109.691406 25.648438 109.523438 25.648438 L 109.277344 25.648438 L 109.277344 26.339844 L 108.980469 26.339844 L 108.980469 24.582031 Z M 108.652344 24.496094 C 108.382812 24.761719 108.25 25.085938 108.25 25.46875 C 108.25 25.847656 108.382812 26.175781 108.648438 26.445312 C 108.917969 26.714844 109.242188 26.847656 109.628906 26.847656 C 110.011719 26.847656 110.335938 26.714844 110.605469 26.445312 C 110.875 26.175781 111.007812 25.847656 111.007812 25.46875 C 111.007812 25.085938 110.875 24.761719 110.605469 24.496094 C 110.335938 24.226562 110.007812 24.089844 109.628906 24.089844 C 109.246094 24.089844 108.921875 24.226562 108.652344 24.496094 M 110.757812 26.597656 C 110.445312 26.910156 110.066406 27.066406 109.625 27.066406 C 109.179688 27.066406 108.804688 26.910156 108.492188 26.597656 C 108.183594 26.285156 108.03125 25.90625 108.03125 25.464844 C 108.03125 25.023438 108.1875 24.648438 108.5 24.335938 C 108.808594 24.027344 109.183594 23.871094 109.625 23.871094 C 110.066406 23.871094 110.445312 24.027344 110.757812 24.335938 C 111.070312 24.648438 111.226562 25.023438 111.226562 25.464844 C 111.226562 25.90625 111.070312 26.285156 110.757812 26.597656" fill="#ffffff"></path></svg>