<svg version="1.0" preserveAspectRatio="xMidYMid meet" height="88" viewBox="0 0 112.5 66" zoomAndPan="magnify" width="150" xmlns:xlink="http://www.w3.org/1999/xlink" xmlns="http://www.w3.org/2000/svg"><defs><clipPath id="d81a99da87"><path clip-rule="nonzero" d="M 9 23.441406 L 103 23.441406 L 103 41 L 9 41 Z M 9 23.441406"></path></clipPath></defs><g clip-path="url(#d81a99da87)"><path fill-rule="nonzero" fill-opacity="1" d="M 21.863281 14.199219 C 21.914062 13.691406 22.03125 13.203125 22.214844 12.726562 C 21.605469 12.007812 21.070312 11.234375 20.617188 10.410156 C 19.402344 8.402344 18.4375 6.28125 17.722656 4.042969 C 17.71875 4 17.699219 3.960938 17.667969 3.929688 C 16.664062 4.871094 13.886719 7.648438 13.707031 8.652344 C 13.59375 9.183594 12.410156 13.964844 12.410156 15.59375 C 12.410156 15.890625 13.570312 15.539062 13.570312 15.710938 C 13.570312 15.882812 14.867188 19.605469 16.640625 20.847656 L 24.820312 20.847656 C 24.820312 20.078125 24.703125 18.785156 24.285156 18.191406 C 23.636719 17.390625 21.863281 16.09375 21.863281 14.199219 Z M 72.078125 17.625 C 71.429688 17.332031 67.121094 15.675781 67.121094 11.070312 C 67.121094 8.117188 70.070312 3.808594 70.25 3.273438 C 70.492188 2.585938 70.648438 1.878906 70.726562 1.152344 C 67.535156 4.160156 62.457031 7.347656 58.796875 10.183594 C 57.953125 11.789062 57.695312 13.480469 58.027344 15.265625 C 58.085938 15.503906 59.03125 15.265625 59.1875 15.382812 C 59.539062 15.675781 59.765625 17.503906 60.015625 17.625 C 60.367188 17.742188 61.375 17.511719 61.488281 17.742188 C 61.605469 17.972656 62.492188 20.339844 63.144531 20.988281 L 74.1875 20.988281 C 74.007812 20.28125 73.058594 18.09375 72.078125 17.625 Z M 99.0625 -8.472656 C 97.785156 -10.058594 96.289062 -11.394531 94.574219 -12.488281 C 94.21875 -12.726562 94.160156 -13.847656 93.628906 -14.378906 C 93.277344 -14.734375 91.894531 -15.539062 89.441406 -16.503906 C 88.804688 -16.707031 88.152344 -16.84375 87.488281 -16.914062 C 86.425781 -18.390625 84.949219 -18.074219 84.480469 -17.449219 C 84.285156 -17.152344 84.207031 -16.832031 84.25 -16.484375 C 84.289062 -16.132812 84.4375 -15.835938 84.695312 -15.597656 C 84.875 -15.417969 84.695312 -15.300781 84.578125 -15.359375 C 83.28125 -15.539062 83.21875 -17.25 83.101562 -17.25 C 77.136719 -17.605469 69.109375 -17.605469 66.21875 -17.308594 C 65.152344 -17.191406 63.972656 -16.421875 62.203125 -16.1875 C 60.90625 -15.832031 48.675781 -22.550781 36.738281 -22.550781 C 32.902344 -22.550781 28.945312 -21.609375 27.171875 -20.78125 C 24.859375 -19.65625 21.035156 -16.355469 18.140625 -12.394531 C 15.664062 -9.003906 13.894531 -5.109375 14.367188 -1.707031 C 14.425781 -1.355469 16.105469 -1.886719 16.261719 -1.589844 C 16.316406 -1.476562 16.261719 -1.296875 16.261719 -1.011719 C 16.25 -0.542969 16.328125 -0.0898438 16.496094 0.347656 C 16.792969 1.347656 17.03125 2.238281 17.203125 2.238281 C 17.5 2.296875 18.269531 1.355469 18.359375 1.589844 C 19.328125 4.710938 20.644531 7.671875 22.3125 10.480469 C 22.722656 11.058594 23.019531 11.421875 23.257812 11.480469 C 23.492188 11.539062 24.027344 10.652344 24.082031 10.832031 C 25.558594 14.199219 28.042969 18.742188 30.28125 20.929688 L 39.8125 20.929688 C 39.753906 20.457031 39.574219 18.511719 38.984375 17.859375 C 38.394531 17.203125 35.621094 16.265625 35.621094 12.488281 C 35.621094 11.769531 35.757812 11.082031 36.035156 10.421875 C 36.679688 9.003906 37.925781 8.0625 38.8125 6.878906 C 41.589844 3.28125 40.933594 2.625 41.351562 2.332031 C 41.769531 2.035156 42.472656 2.683594 45.074219 -0.265625 C 45.355469 -0.0898438 45.652344 0.0703125 45.957031 0.207031 C 46.253906 0.324219 46.726562 0.5625 46.664062 0.617188 C 44.347656 3.394531 42.886719 3.511719 42.648438 3.691406 C 42.410156 3.871094 43 4.636719 38.019531 10.363281 C 37.960938 10.421875 38.019531 10.421875 38.019531 10.421875 L 38.492188 10.421875 C 39.832031 10.222656 41.152344 9.929688 42.449219 9.535156 C 42.449219 9.535156 45.523438 4.75 45.640625 4.691406 C 46 4.726562 46.355469 4.785156 46.703125 4.871094 C 47.238281 4.929688 47.769531 4.757812 47.828125 4.871094 C 47.882812 4.988281 45.460938 7.289062 43.949219 10.445312 C 43.828125 10.667969 43.726562 10.90625 43.65625 11.152344 C 43.539062 11.503906 44.71875 11.035156 44.65625 11.265625 C 44.597656 11.800781 42.292969 14.988281 42.292969 16.640625 C 42.292969 16.9375 43.417969 16.585938 43.417969 16.757812 C 43.417969 16.933594 44.125 19.710938 45.835938 20.890625 L 55.875 20.890625 C 55.859375 19.980469 55.625 19.136719 55.171875 18.347656 C 54.757812 17.703125 52.808594 17.109375 52.808594 15.75 C 52.808594 14.152344 54.34375 12.324219 56.589844 10.4375 C 60.898438 6.71875 67.808594 2.644531 70.644531 -1.019531 C 70.984375 -1.433594 71.261719 -1.886719 71.472656 -2.378906 C 71.53125 -2.496094 71.945312 -2.496094 72.414062 -2.558594 C 72.785156 -2.636719 73.160156 -2.695312 73.539062 -2.738281 C 73.335938 -2.140625 73.042969 -1.59375 72.65625 -1.09375 L 71.953125 -0.207031 C 72.363281 -0.445312 72.894531 -0.789062 73.425781 -1.09375 C 74.121094 -1.566406 74.851562 -1.980469 75.613281 -2.332031 C 75.671875 -2.152344 75.378906 -1.390625 75.378906 -1.09375 C 75.378906 -1.035156 75.378906 -0.976562 75.4375 -0.976562 C 75.53125 -1.023438 75.628906 -1.0625 75.730469 -1.09375 C 76.886719 -1.671875 81.042969 -4.101562 81.222656 -3.988281 C 81.402344 -3.871094 81.042969 -2.832031 81.402344 -2.691406 C 81.515625 -2.632812 84.769531 -4.9375 89.375 -4.816406 C 89.953125 -4.699219 91.203125 -4.757812 94.394531 -4.636719 C 95.296875 -4.597656 96.125 -4.832031 96.875 -5.339844 C 97.308594 -5.730469 97.695312 -6.164062 98.03125 -6.636719 C 98.328125 -7.046875 98.917969 -7.703125 99.097656 -7.933594 C 99.21875 -8.074219 99.21875 -8.242188 99.039062 -8.472656 Z M 92.800781 -12.070312 C 92.464844 -11.957031 92.128906 -11.953125 91.792969 -12.058594 C 91.453125 -12.167969 91.179688 -12.363281 90.972656 -12.648438 C 90.734375 -13.0625 91.269531 -13.476562 91.503906 -13.535156 C 92.570312 -13.714844 92.980469 -12.378906 92.800781 -12.058594 Z M 15.257812 29.015625 C 15.257812 28.480469 15.835938 28.128906 17.152344 28.128906 C 17.6875 28.09375 18.199219 28.191406 18.683594 28.425781 C 19.167969 28.625 19.460938 28.980469 19.570312 29.488281 L 25.300781 29.488281 C 24.886719 26.832031 22.519531 24.644531 17.445312 24.644531 C 12.816406 24.644531 9.535156 26.300781 9.535156 29.546875 C 9.535156 35.390625 20.042969 33.800781 20.042969 36.101562 C 20.042969 36.808594 19.042969 37.226562 17.5625 37.226562 C 16.957031 37.238281 16.378906 37.121094 15.824219 36.871094 C 15.292969 36.65625 14.960938 36.273438 14.824219 35.714844 L 9.097656 35.714844 C 9.210938 38.492188 12.398438 40.855469 17.199219 40.855469 C 22.214844 40.855469 25.761719 39.117188 25.761719 35.601562 C 25.785156 29.90625 15.253906 31.324219 15.253906 29.019531 Z M 75.960938 34.328125 L 83.519531 34.328125 L 83.519531 30.785156 L 75.949219 30.785156 L 75.949219 28.597656 L 84.867188 28.597656 L 84.867188 25.054688 L 69.933594 25.054688 L 69.933594 40.292969 L 85.226562 40.292969 L 85.226562 36.75 L 75.96875 36.75 Z M 94.445312 25.066406 L 88.410156 25.066406 L 88.410156 40.304688 L 102.640625 40.304688 L 102.640625 36.761719 L 94.433594 36.761719 Z M 37.359375 24.652344 C 31.628906 24.652344 27.792969 27.78125 27.792969 32.5625 C 27.792969 37.769531 31.628906 40.710938 37.359375 40.710938 L 37.9375 40.710938 L 37.9375 36.929688 C 37.757812 36.929688 37.527344 36.988281 37.359375 36.988281 C 34.464844 36.988281 33.757812 34.570312 33.757812 32.621094 C 33.757812 30.667969 34.585938 28.429688 37.300781 28.429688 C 40.015625 28.429688 40.964844 30.554688 40.964844 32.621094 C 40.964844 34.933594 40.078125 36.671875 37.953125 36.988281 L 37.953125 40.765625 C 43.09375 40.53125 46.988281 37.695312 46.988281 32.664062 C 46.957031 28.550781 43.890625 24.652344 37.359375 24.652344 Z M 66.40625 37.167969 C 66.40625 34.09375 65.25 33.695312 63.277344 33.117188 C 63.71875 33.050781 64.132812 32.910156 64.523438 32.691406 C 64.910156 32.472656 65.246094 32.191406 65.53125 31.847656 C 65.8125 31.503906 66.027344 31.121094 66.167969 30.699219 C 66.308594 30.277344 66.371094 29.84375 66.351562 29.394531 C 66.351562 26.445312 64.34375 25.027344 58.203125 25.027344 L 57.136719 25.027344 L 57.136719 28.570312 L 58.296875 28.570312 C 59.710938 28.570312 60.714844 29.101562 60.714844 30.167969 C 60.714844 31.230469 59.710938 31.582031 57.878906 31.582031 L 55.523438 31.582031 L 55.523438 28.574219 L 57.121094 28.574219 L 57.121094 25.035156 L 49.597656 25.035156 L 49.597656 40.328125 L 55.640625 40.328125 L 55.640625 35.015625 L 57.46875 35.015625 C 60.246094 35.015625 60.65625 35.664062 60.65625 37.671875 C 60.632812 38.570312 60.730469 39.457031 60.953125 40.328125 L 67.03125 40.328125 L 67.03125 39.851562 C 66.328125 39.851562 66.386719 39.203125 66.386719 37.195312 Z M 66.40625 37.167969" fill="#ffffff"></path></g></svg>