<svg version="1.0" preserveAspectRatio="xMidYMid meet" height="88" viewBox="0 0 112.5 66" zoomAndPan="magnify" width="150" xmlns:xlink="http://www.w3.org/1999/xlink" xmlns="http://www.w3.org/2000/svg"><defs><clipPath id="36e3a5f938"><path clip-rule="nonzero" d="M 8.277344 19.941406 L 37.089844 19.941406 L 37.089844 46.054688 L 8.277344 46.054688 Z M 8.277344 19.941406"></path></clipPath><clipPath id="20dae26594"><path clip-rule="evenodd" d="M 8.277344 19.941406 L 17.359375 19.941406 L 22.695312 28.746094 L 28.035156 19.941406 L 37.066406 19.941406 L 26.78125 35.113281 L 26.78125 46.054688 L 18.589844 46.054688 L 18.589844 35.113281 L 8.277344 19.941406"></path></clipPath><clipPath id="bf096d2b38"><path clip-rule="nonzero" d="M 38.921875 19.941406 L 61.433594 19.941406 L 61.433594 46.054688 L 38.921875 46.054688 Z M 38.921875 19.941406"></path></clipPath><clipPath id="835a09e7b3"><path clip-rule="evenodd" d="M 38.921875 19.941406 L 60.835938 19.941406 L 60.835938 26.375 L 47.117188 26.375 L 47.117188 30.097656 L 59.085938 30.097656 L 59.085938 35.984375 L 47.121094 35.984375 L 47.121094 39.703125 L 61.230469 39.703125 L 61.230469 46.054688 L 38.925781 46.054688 L 38.925781 19.945312"></path></clipPath><clipPath id="e7607bdf5e"><path clip-rule="nonzero" d="M 63.957031 19.941406 L 88.8125 19.941406 L 88.8125 26.375 L 63.957031 26.375 Z M 63.957031 26.375 L 80.472656 26.375 L 80.472656 26.378906 L 63.957031 26.378906 Z M 72.296875 26.378906 L 80.472656 26.378906 L 80.472656 46.050781 L 72.296875 46.050781 Z M 72.296875 26.378906"></path></clipPath><clipPath id="ba0cd022b5"><path clip-rule="nonzero" d="M 91 19.941406 L 100 19.941406 L 100 46.054688 L 91 46.054688 Z M 91 19.941406"></path></clipPath><clipPath id="351b748e90"><path clip-rule="evenodd" d="M 91.769531 19.941406 L 99.964844 19.941406 L 99.964844 46.054688 L 91.769531 46.054688 L 91.765625 19.941406"></path></clipPath><clipPath id="5dedac254c"><path clip-rule="nonzero" d="M 100.949219 20.101562 L 103.726562 20.101562 L 103.726562 22.800781 L 100.949219 22.800781 Z M 100.949219 20.101562"></path></clipPath><clipPath id="4a261b1baa"><path clip-rule="evenodd" d="M 102.3125 21.355469 C 102.367188 21.355469 102.421875 21.355469 102.472656 21.347656 C 102.519531 21.34375 102.5625 21.332031 102.605469 21.3125 C 102.644531 21.296875 102.675781 21.269531 102.699219 21.234375 C 102.726562 21.191406 102.738281 21.140625 102.738281 21.089844 C 102.738281 21.042969 102.730469 21.003906 102.707031 20.964844 C 102.6875 20.933594 102.660156 20.910156 102.625 20.894531 C 102.589844 20.875 102.550781 20.867188 102.511719 20.859375 C 102.46875 20.855469 102.425781 20.855469 102.382812 20.855469 L 102.050781 20.859375 L 102.050781 21.359375 Z M 102.425781 20.65625 C 102.582031 20.640625 102.722656 20.675781 102.851562 20.757812 C 102.953125 20.847656 103 20.960938 102.988281 21.09375 C 102.996094 21.21875 102.953125 21.324219 102.863281 21.40625 C 102.773438 21.480469 102.675781 21.519531 102.5625 21.53125 L 103.015625 22.214844 L 102.746094 22.21875 L 102.3125 21.550781 L 102.042969 21.558594 L 102.042969 22.230469 L 101.792969 22.230469 L 101.800781 20.664062 Z M 101.28125 21.917969 C 101.335938 22.054688 101.414062 22.171875 101.519531 22.277344 C 101.621094 22.378906 101.742188 22.457031 101.878906 22.511719 C 102.023438 22.570312 102.171875 22.597656 102.328125 22.589844 C 102.484375 22.589844 102.636719 22.558594 102.78125 22.496094 C 102.914062 22.4375 103.035156 22.351562 103.140625 22.246094 C 103.242188 22.140625 103.324219 22.015625 103.378906 21.878906 C 103.441406 21.730469 103.472656 21.578125 103.472656 21.417969 C 103.472656 21.261719 103.445312 21.113281 103.386719 20.96875 C 103.332031 20.832031 103.253906 20.710938 103.152344 20.605469 C 103.046875 20.503906 102.925781 20.425781 102.789062 20.375 C 102.648438 20.316406 102.5 20.289062 102.347656 20.296875 C 102.191406 20.296875 102.039062 20.328125 101.894531 20.390625 C 101.761719 20.453125 101.640625 20.535156 101.535156 20.640625 C 101.429688 20.746094 101.351562 20.867188 101.292969 21.003906 C 101.234375 21.148438 101.203125 21.296875 101.203125 21.453125 C 101.199219 21.613281 101.226562 21.765625 101.28125 21.914062 Z M 101.058594 20.933594 C 101.136719 20.773438 101.238281 20.628906 101.363281 20.503906 C 101.496094 20.382812 101.644531 20.285156 101.808594 20.214844 C 101.980469 20.144531 102.164062 20.105469 102.351562 20.101562 C 102.535156 20.097656 102.710938 20.128906 102.882812 20.191406 C 103.046875 20.253906 103.191406 20.34375 103.320312 20.460938 C 103.445312 20.582031 103.546875 20.722656 103.617188 20.878906 C 103.691406 21.046875 103.726562 21.222656 103.722656 21.40625 C 103.722656 21.59375 103.683594 21.773438 103.609375 21.945312 C 103.535156 22.109375 103.433594 22.253906 103.308594 22.378906 C 103.179688 22.503906 103.03125 22.601562 102.867188 22.667969 C 102.695312 22.738281 102.515625 22.777344 102.332031 22.777344 C 102.148438 22.78125 101.96875 22.753906 101.796875 22.6875 C 101.632812 22.628906 101.484375 22.539062 101.355469 22.417969 C 101.230469 22.296875 101.128906 22.160156 101.058594 22 C 100.984375 21.828125 100.949219 21.648438 100.953125 21.464844 C 100.953125 21.277344 100.992188 21.101562 101.066406 20.933594 Z M 101.058594 20.933594"></path></clipPath></defs><g clip-path="url(#36e3a5f938)"><g clip-path="url(#20dae26594)"><path fill-rule="nonzero" fill-opacity="1" d="M 8.042969 19.710938 L 37.300781 19.710938 L 37.300781 46.285156 L 8.042969 46.285156 Z M 8.042969 19.710938" fill="#ffffff"></path></g></g><g clip-path="url(#bf096d2b38)"><g clip-path="url(#835a09e7b3)"><path fill-rule="nonzero" fill-opacity="1" d="M 38.6875 19.710938 L 61.46875 19.710938 L 61.46875 46.285156 L 38.6875 46.285156 Z M 38.6875 19.710938" fill="#ffffff"></path></g></g><g clip-path="url(#e7607bdf5e)"><path fill-rule="nonzero" fill-opacity="1" d="M 63.726562 19.710938 L 89.050781 19.710938 L 89.050781 46.285156 L 63.726562 46.285156 Z M 63.726562 19.710938" fill="#ffffff"></path></g><g clip-path="url(#ba0cd022b5)"><g clip-path="url(#351b748e90)"><path fill-rule="nonzero" fill-opacity="1" d="M 91.535156 19.710938 L 100.203125 19.710938 L 100.203125 46.285156 L 91.535156 46.285156 Z M 91.535156 19.710938" fill="#ffffff"></path></g></g><g clip-path="url(#5dedac254c)"><g clip-path="url(#4a261b1baa)"><path fill-rule="nonzero" fill-opacity="1" d="M 100.714844 19.867188 L 103.953125 19.867188 L 103.953125 23.015625 L 100.714844 23.015625 Z M 100.714844 19.867188" fill="#ffffff"></path></g></g></svg>